<?xml version="1.0" encoding="utf-8" standalone="no"?>
<!DOCTYPE svg PUBLIC "-//W3C//DTD SVG 1.1//EN"
  "http://www.w3.org/Graphics/SVG/1.1/DTD/svg11.dtd">
<!-- Created with matplotlib (https://matplotlib.org/) -->
<svg height="432pt" version="1.1" viewBox="0 0 720 432" width="720pt" xmlns="http://www.w3.org/2000/svg" xmlns:xlink="http://www.w3.org/1999/xlink">
 <defs>
  <style type="text/css">
*{stroke-linecap:butt;stroke-linejoin:round;}
  </style>
 </defs>
 <g id="figure_1">
  <g id="patch_1">
   <path d="M 0 432 
L 720 432 
L 720 0 
L 0 0 
z
" style="fill:#ffffff;"/>
  </g>
  <g id="axes_1">
   <g id="patch_2">
    <path d="M 90 384.48 
L 648 384.48 
L 648 51.84 
L 90 51.84 
z
" style="fill:#ffffff;"/>
   </g>
   <g id="matplotlib.axis_1">
    <g id="xtick_1">
     <g id="line2d_1">
      <path clip-path="url(#p6da80e3a1f)" d="M 115.363636 384.48 
L 115.363636 51.84 
" style="fill:none;stroke:#b0b0b0;stroke-linecap:square;stroke-width:0.8;"/>
     </g>
     <g id="line2d_2">
      <defs>
       <path d="M 0 0 
L 0 3.5 
" id="m8a588521d8" style="stroke:#000000;stroke-width:0.8;"/>
      </defs>
      <g>
       <use style="stroke:#000000;stroke-width:0.8;" x="115.363636" xlink:href="#m8a588521d8" y="384.48"/>
      </g>
     </g>
     <g id="text_1">
      <!-- 0 -->
      <defs>
       <path d="M 25 66.015625 
Q 19.53125 66.015625 15.8125 57.609375 
Q 12.109375 49.21875 12.109375 35.15625 
Q 12.109375 20.3125 15.8125 12.109375 
Q 19.53125 3.90625 25 3.90625 
Q 30.859375 3.90625 34.171875 12.109375 
Q 37.5 20.3125 37.5 35.15625 
Q 37.5 49.21875 34.375 57.609375 
Q 31.25 66.015625 25 66.015625 
z
M 25 0.78125 
Q 16.40625 0.78125 10.546875 9.765625 
Q 4.6875 18.75 4.6875 35.15625 
Q 4.6875 50.390625 10.34375 59.765625 
Q 16.015625 69.140625 25 69.140625 
Q 33.59375 69.140625 39.25 60.15625 
Q 44.921875 51.171875 44.921875 35.15625 
Q 44.921875 19.140625 39.25 9.953125 
Q 33.59375 0.78125 25 0.78125 
z
" id="SimSun-48"/>
      </defs>
      <g transform="translate(112.863636 398.628438)scale(0.1 -0.1)">
       <use xlink:href="#SimSun-48"/>
      </g>
     </g>
    </g>
    <g id="xtick_2">
     <g id="line2d_3">
      <path clip-path="url(#p6da80e3a1f)" d="M 216.818182 384.48 
L 216.818182 51.84 
" style="fill:none;stroke:#b0b0b0;stroke-linecap:square;stroke-width:0.8;"/>
     </g>
     <g id="line2d_4">
      <g>
       <use style="stroke:#000000;stroke-width:0.8;" x="216.818182" xlink:href="#m8a588521d8" y="384.48"/>
      </g>
     </g>
     <g id="text_2">
      <!-- 2 -->
      <defs>
       <path d="M 36.328125 51.953125 
Q 36.328125 58.984375 33.203125 62.6875 
Q 30.078125 66.40625 23.828125 66.40625 
Q 19.140625 66.40625 15.8125 63.859375 
Q 12.5 61.328125 12.5 57.421875 
Q 12.5 55.078125 13.859375 53.515625 
Q 15.234375 51.953125 15.234375 50.390625 
Q 15.234375 48.4375 14.25 47.453125 
Q 13.28125 46.484375 11.328125 46.484375 
Q 8.984375 46.484375 7.609375 47.84375 
Q 6.25 49.21875 6.25 52.34375 
Q 6.25 60.546875 12.109375 64.84375 
Q 17.96875 69.140625 24.609375 69.140625 
Q 33.984375 69.140625 38.46875 64.453125 
Q 42.96875 59.765625 42.96875 52.734375 
Q 42.96875 48.046875 40.8125 43.359375 
Q 38.671875 38.671875 33.984375 34.375 
Q 22.65625 23.4375 16.59375 16.59375 
Q 10.546875 9.765625 9.375 7.421875 
L 32.421875 7.421875 
Q 35.9375 7.421875 38.28125 10.15625 
Q 40.625 12.890625 41.40625 18.359375 
L 43.75 18.359375 
L 41.40625 1.5625 
L 5.078125 1.5625 
L 5.078125 6.640625 
Q 7.03125 10.15625 11.515625 15.625 
Q 16.015625 21.09375 23.4375 28.515625 
Q 30.078125 35.15625 33.203125 41.015625 
Q 36.328125 46.875 36.328125 51.953125 
z
" id="SimSun-50"/>
      </defs>
      <g transform="translate(214.318182 398.628438)scale(0.1 -0.1)">
       <use xlink:href="#SimSun-50"/>
      </g>
     </g>
    </g>
    <g id="xtick_3">
     <g id="line2d_5">
      <path clip-path="url(#p6da80e3a1f)" d="M 318.272727 384.48 
L 318.272727 51.84 
" style="fill:none;stroke:#b0b0b0;stroke-linecap:square;stroke-width:0.8;"/>
     </g>
     <g id="line2d_6">
      <g>
       <use style="stroke:#000000;stroke-width:0.8;" x="318.272727" xlink:href="#m8a588521d8" y="384.48"/>
      </g>
     </g>
     <g id="text_3">
      <!-- 4 -->
      <defs>
       <path d="M 35.9375 8.984375 
Q 35.9375 6.25 37.5 5.078125 
Q 39.0625 3.90625 41.796875 3.90625 
L 45.3125 3.90625 
L 45.3125 1.5625 
L 19.53125 1.5625 
L 19.53125 3.90625 
L 23.828125 3.90625 
Q 26.953125 3.90625 28.3125 5.078125 
Q 29.6875 6.25 29.6875 8.984375 
L 29.6875 21.875 
L 3.515625 21.875 
L 3.515625 23.828125 
L 32.03125 69.140625 
L 35.9375 69.140625 
L 35.9375 24.21875 
L 46.484375 24.21875 
L 46.484375 21.875 
L 35.9375 21.875 
z
M 29.296875 59.375 
L 7.03125 24.21875 
L 29.6875 24.21875 
L 29.6875 59.375 
z
" id="SimSun-52"/>
      </defs>
      <g transform="translate(315.772727 398.628438)scale(0.1 -0.1)">
       <use xlink:href="#SimSun-52"/>
      </g>
     </g>
    </g>
    <g id="xtick_4">
     <g id="line2d_7">
      <path clip-path="url(#p6da80e3a1f)" d="M 419.727273 384.48 
L 419.727273 51.84 
" style="fill:none;stroke:#b0b0b0;stroke-linecap:square;stroke-width:0.8;"/>
     </g>
     <g id="line2d_8">
      <g>
       <use style="stroke:#000000;stroke-width:0.8;" x="419.727273" xlink:href="#m8a588521d8" y="384.48"/>
      </g>
     </g>
     <g id="text_4">
      <!-- 6 -->
      <defs>
       <path d="M 12.109375 28.125 
Q 12.109375 16.40625 16.203125 9.953125 
Q 20.3125 3.515625 26.171875 3.515625 
Q 32.03125 3.515625 35.15625 7.8125 
Q 38.28125 12.109375 38.28125 23.828125 
Q 38.28125 31.640625 34.953125 35.9375 
Q 31.640625 40.234375 26.953125 40.234375 
Q 22.65625 40.234375 18.9375 37.6875 
Q 15.234375 35.15625 12.109375 28.125 
z
M 27.34375 44.140625 
Q 36.71875 44.140625 40.8125 37.890625 
Q 44.921875 31.640625 44.921875 23.828125 
Q 44.921875 12.109375 39.25 6.4375 
Q 33.59375 0.78125 26.171875 0.78125 
Q 15.625 0.78125 10.15625 8.78125 
Q 4.6875 16.796875 4.6875 32.03125 
Q 4.6875 50 11.328125 59.5625 
Q 17.96875 69.140625 29.296875 69.140625 
Q 34.765625 69.140625 38.078125 66.015625 
Q 41.40625 62.890625 41.40625 60.546875 
Q 41.40625 58.203125 40.421875 57.03125 
Q 39.453125 55.859375 37.109375 55.859375 
Q 35.15625 55.859375 34.171875 56.828125 
Q 33.203125 57.8125 33.203125 59.765625 
Q 33.203125 60.546875 33.390625 61.328125 
Q 33.59375 62.109375 33.59375 62.890625 
Q 33.59375 64.453125 32.421875 65.421875 
Q 31.25 66.40625 28.125 66.40625 
Q 21.484375 66.40625 16.796875 60.34375 
Q 12.109375 54.296875 12.109375 33.984375 
Q 14.453125 39.0625 18.546875 41.59375 
Q 22.65625 44.140625 27.34375 44.140625 
z
" id="SimSun-54"/>
      </defs>
      <g transform="translate(417.227273 398.628438)scale(0.1 -0.1)">
       <use xlink:href="#SimSun-54"/>
      </g>
     </g>
    </g>
    <g id="xtick_5">
     <g id="line2d_9">
      <path clip-path="url(#p6da80e3a1f)" d="M 521.181818 384.48 
L 521.181818 51.84 
" style="fill:none;stroke:#b0b0b0;stroke-linecap:square;stroke-width:0.8;"/>
     </g>
     <g id="line2d_10">
      <g>
       <use style="stroke:#000000;stroke-width:0.8;" x="521.181818" xlink:href="#m8a588521d8" y="384.48"/>
      </g>
     </g>
     <g id="text_5">
      <!-- 8 -->
      <defs>
       <path d="M 9.765625 17.578125 
Q 9.765625 11.328125 13.859375 7.421875 
Q 17.96875 3.515625 24.21875 3.515625 
Q 31.640625 3.515625 34.953125 7.421875 
Q 38.28125 11.328125 38.28125 17.1875 
Q 38.28125 22.265625 33.59375 26.953125 
Q 28.90625 31.640625 19.53125 35.546875 
Q 14.84375 32.421875 12.296875 27.734375 
Q 9.765625 23.046875 9.765625 17.578125 
z
M 44.140625 18.359375 
Q 44.140625 10.9375 38.671875 5.859375 
Q 33.203125 0.78125 24.21875 0.78125 
Q 16.015625 0.78125 10.15625 5.859375 
Q 4.296875 10.9375 4.296875 17.578125 
Q 4.296875 24.21875 7.609375 28.90625 
Q 10.9375 33.59375 17.1875 37.109375 
Q 11.71875 39.84375 8.78125 43.9375 
Q 5.859375 48.046875 5.859375 53.125 
Q 5.859375 59.765625 10.9375 64.453125 
Q 16.015625 69.140625 25 69.140625 
Q 33.203125 69.140625 38.28125 64.453125 
Q 43.359375 59.765625 43.359375 53.125 
Q 43.359375 48.4375 40.421875 44.328125 
Q 37.5 40.234375 31.25 37.109375 
Q 37.890625 33.203125 41.015625 28.515625 
Q 44.140625 23.828125 44.140625 18.359375 
z
M 37.890625 52.734375 
Q 37.890625 58.203125 34.765625 62.296875 
Q 31.640625 66.40625 25 66.40625 
Q 17.578125 66.40625 14.453125 62.5 
Q 11.328125 58.59375 11.328125 54.296875 
Q 11.328125 50 15.8125 45.890625 
Q 20.3125 41.796875 28.515625 38.671875 
Q 33.203125 41.015625 35.546875 44.53125 
Q 37.890625 48.046875 37.890625 52.734375 
z
" id="SimSun-56"/>
      </defs>
      <g transform="translate(518.681818 398.628438)scale(0.1 -0.1)">
       <use xlink:href="#SimSun-56"/>
      </g>
     </g>
    </g>
    <g id="xtick_6">
     <g id="line2d_11">
      <path clip-path="url(#p6da80e3a1f)" d="M 622.636364 384.48 
L 622.636364 51.84 
" style="fill:none;stroke:#b0b0b0;stroke-linecap:square;stroke-width:0.8;"/>
     </g>
     <g id="line2d_12">
      <g>
       <use style="stroke:#000000;stroke-width:0.8;" x="622.636364" xlink:href="#m8a588521d8" y="384.48"/>
      </g>
     </g>
     <g id="text_6">
      <!-- 10 -->
      <defs>
       <path d="M 28.515625 69.53125 
L 28.515625 10.15625 
Q 28.515625 7.03125 30.46875 5.46875 
Q 32.421875 3.90625 35.9375 3.90625 
L 39.84375 3.90625 
L 39.84375 1.5625 
L 11.328125 1.5625 
L 11.328125 3.90625 
L 14.84375 3.90625 
Q 18.75 3.90625 20.5 5.46875 
Q 22.265625 7.03125 22.265625 10.15625 
L 22.265625 57.421875 
Q 22.265625 58.984375 21.28125 59.953125 
Q 20.3125 60.9375 18.359375 60.9375 
L 11.328125 60.9375 
L 11.328125 63.28125 
L 14.84375 63.28125 
Q 19.53125 63.28125 22.453125 64.84375 
Q 25.390625 66.40625 26.953125 69.53125 
z
" id="SimSun-49"/>
      </defs>
      <g transform="translate(617.636364 398.628438)scale(0.1 -0.1)">
       <use xlink:href="#SimSun-49"/>
       <use x="50" xlink:href="#SimSun-48"/>
      </g>
     </g>
    </g>
    <g id="text_7">
     <!-- X值 -->
     <defs>
      <path d="M 27.34375 37.5 
L 41.015625 8.203125 
Q 42.1875 5.859375 43.546875 4.875 
Q 44.921875 3.90625 46.484375 3.90625 
L 47.65625 3.90625 
L 47.65625 1.5625 
L 30.859375 1.5625 
L 30.859375 3.90625 
L 32.421875 3.90625 
Q 34.375 3.90625 34.953125 4.875 
Q 35.546875 5.859375 34.765625 7.421875 
L 24.21875 30.46875 
L 15.234375 11.71875 
Q 14.453125 9.765625 13.859375 8.390625 
Q 13.28125 7.03125 13.28125 6.640625 
Q 13.28125 5.078125 14.25 4.484375 
Q 15.234375 3.90625 16.796875 3.90625 
L 17.578125 3.90625 
L 17.578125 1.5625 
L 2.734375 1.5625 
L 2.734375 3.90625 
L 4.296875 3.90625 
Q 6.25 3.90625 7.8125 5.078125 
Q 9.375 6.25 10.15625 7.8125 
L 22.65625 34.375 
L 9.375 63.28125 
Q 8.984375 64.453125 8 65.234375 
Q 7.03125 66.015625 5.46875 66.015625 
L 3.90625 66.015625 
L 3.90625 68.359375 
L 19.921875 68.359375 
L 19.921875 66.015625 
L 18.75 66.015625 
Q 16.40625 66.015625 16.015625 64.84375 
Q 15.625 63.671875 16.40625 61.328125 
L 25.78125 40.625 
L 35.15625 60.546875 
Q 36.328125 63.28125 35.9375 64.640625 
Q 35.546875 66.015625 33.203125 66.015625 
L 30.859375 66.015625 
L 30.859375 68.359375 
L 46.09375 68.359375 
L 46.09375 66.015625 
L 43.75 66.015625 
Q 42.96875 66.015625 41.796875 65.234375 
Q 40.625 64.453125 39.453125 62.890625 
z
" id="SimSun-88"/>
      <path d="M 23.828125 9.765625 
L 23.828125 48.828125 
L 26.5625 51.5625 
L 22.265625 53.90625 
Q 25.390625 59.375 28.90625 66.203125 
Q 32.421875 73.046875 35.9375 75.78125 
L 28.125 80.859375 
Q 23.4375 65.625 17.765625 54.296875 
Q 12.109375 42.96875 3.515625 31.25 
L 4.6875 30.078125 
Q 11.328125 37.109375 18.75 47.265625 
L 18.75 8.203125 
Q 18.75 3.515625 18.359375 -10.546875 
L 24.21875 -8.59375 
Q 23.828125 -3.90625 23.828125 9.765625 
z
M 46.09375 50.390625 
L 75.78125 50.390625 
L 75.78125 38.28125 
L 46.09375 38.28125 
z
M 46.09375 36.328125 
L 75.78125 36.328125 
L 75.78125 24.21875 
L 46.09375 24.21875 
z
M 46.09375 22.265625 
L 75.78125 22.265625 
L 75.78125 10.15625 
L 46.09375 10.15625 
z
M 46.09375 8.203125 
L 75.78125 8.203125 
L 75.78125 -4.296875 
L 46.09375 -4.296875 
z
M 56.25 66.015625 
L 30.859375 66.015625 
L 33.984375 62.890625 
Q 37.5 64.0625 41.796875 64.0625 
L 56.25 64.0625 
L 56.25 52.34375 
L 46.484375 52.34375 
L 40.625 55.859375 
Q 41.015625 44.140625 41.015625 39.453125 
L 41.015625 -4.296875 
L 26.171875 -4.296875 
L 29.6875 -7.8125 
Q 33.984375 -6.640625 39.0625 -6.640625 
L 96.875 -6.640625 
L 90.234375 0.390625 
L 85.546875 -4.296875 
L 80.859375 -4.296875 
L 80.859375 48.828125 
L 84.765625 50.78125 
L 78.90625 56.640625 
L 75 52.34375 
L 61.328125 52.34375 
L 61.328125 64.0625 
L 93.359375 64.0625 
L 85.9375 71.09375 
L 80.859375 66.015625 
L 61.328125 66.015625 
L 61.328125 73.828125 
L 64.84375 76.5625 
L 55.859375 81.640625 
Q 56.25 75 56.25 66.015625 
z
" id="SimSun-20540"/>
     </defs>
     <g transform="translate(361.5 411.847188)scale(0.1 -0.1)">
      <use xlink:href="#SimSun-88"/>
      <use x="50" xlink:href="#SimSun-20540"/>
     </g>
    </g>
   </g>
   <g id="matplotlib.axis_2">
    <g id="ytick_1">
     <g id="line2d_13">
      <path clip-path="url(#p6da80e3a1f)" d="M 90 356.76 
L 648 356.76 
" style="fill:none;stroke:#b0b0b0;stroke-linecap:square;stroke-width:0.8;"/>
     </g>
     <g id="line2d_14">
      <defs>
       <path d="M 0 0 
L -3.5 0 
" id="mc6a6b942e6" style="stroke:#000000;stroke-width:0.8;"/>
      </defs>
      <g>
       <use style="stroke:#000000;stroke-width:0.8;" x="90" xlink:href="#mc6a6b942e6" y="356.76"/>
      </g>
     </g>
     <g id="text_8">
      <!-- -1.0 -->
      <defs>
       <path d="M 3.125 34.765625 
L 3.125 38.28125 
L 46.484375 38.28125 
L 46.484375 34.765625 
z
" id="SimSun-45"/>
       <path d="M 12.5 0.390625 
Q 10.15625 0.390625 8.390625 1.953125 
Q 6.640625 3.515625 6.640625 6.25 
Q 6.640625 8.984375 8.390625 10.546875 
Q 10.15625 12.109375 12.5 12.109375 
Q 14.84375 12.109375 16.59375 10.34375 
Q 18.359375 8.59375 18.359375 6.25 
Q 18.359375 3.515625 16.59375 1.953125 
Q 14.84375 0.390625 12.5 0.390625 
z
" id="SimSun-46"/>
      </defs>
      <g transform="translate(63 360.334219)scale(0.1 -0.1)">
       <use xlink:href="#SimSun-45"/>
       <use x="50" xlink:href="#SimSun-49"/>
       <use x="100" xlink:href="#SimSun-46"/>
       <use x="150" xlink:href="#SimSun-48"/>
      </g>
     </g>
    </g>
    <g id="ytick_2">
     <g id="line2d_15">
      <path clip-path="url(#p6da80e3a1f)" d="M 90 287.46 
L 648 287.46 
" style="fill:none;stroke:#b0b0b0;stroke-linecap:square;stroke-width:0.8;"/>
     </g>
     <g id="line2d_16">
      <g>
       <use style="stroke:#000000;stroke-width:0.8;" x="90" xlink:href="#mc6a6b942e6" y="287.46"/>
      </g>
     </g>
     <g id="text_9">
      <!-- -0.5 -->
      <defs>
       <path d="M 26.953125 44.53125 
Q 34.375 44.53125 39.0625 38.859375 
Q 43.75 33.203125 43.75 23.828125 
Q 43.75 13.28125 38.859375 7.03125 
Q 33.984375 0.78125 23.828125 0.78125 
Q 16.796875 0.78125 11.328125 4.875 
Q 5.859375 8.984375 5.859375 14.84375 
Q 5.859375 17.1875 7.21875 18.9375 
Q 8.59375 20.703125 10.9375 20.703125 
Q 13.28125 20.703125 14.0625 19.140625 
Q 14.84375 17.578125 14.84375 16.40625 
Q 14.84375 14.0625 13.671875 12.6875 
Q 12.5 11.328125 12.5 9.765625 
Q 12.5 6.640625 16.203125 5.078125 
Q 19.921875 3.515625 24.21875 3.515625 
Q 30.46875 3.515625 33.78125 8.59375 
Q 37.109375 13.671875 37.109375 23.046875 
Q 37.109375 30.859375 34.171875 35.734375 
Q 31.25 40.625 25.390625 40.625 
Q 21.09375 40.625 17.96875 39.0625 
Q 14.84375 37.5 12.109375 32.421875 
L 8.59375 32.8125 
L 10.546875 68.359375 
L 42.578125 68.359375 
L 41.40625 62.5 
L 13.28125 62.5 
L 11.71875 36.71875 
Q 15.625 42.1875 19.328125 43.359375 
Q 23.046875 44.53125 26.953125 44.53125 
z
" id="SimSun-53"/>
      </defs>
      <g transform="translate(63 291.034219)scale(0.1 -0.1)">
       <use xlink:href="#SimSun-45"/>
       <use x="50" xlink:href="#SimSun-48"/>
       <use x="100" xlink:href="#SimSun-46"/>
       <use x="150" xlink:href="#SimSun-53"/>
      </g>
     </g>
    </g>
    <g id="ytick_3">
     <g id="line2d_17">
      <path clip-path="url(#p6da80e3a1f)" d="M 90 218.16 
L 648 218.16 
" style="fill:none;stroke:#b0b0b0;stroke-linecap:square;stroke-width:0.8;"/>
     </g>
     <g id="line2d_18">
      <g>
       <use style="stroke:#000000;stroke-width:0.8;" x="90" xlink:href="#mc6a6b942e6" y="218.16"/>
      </g>
     </g>
     <g id="text_10">
      <!-- 0.0 -->
      <g transform="translate(68 221.734219)scale(0.1 -0.1)">
       <use xlink:href="#SimSun-48"/>
       <use x="50" xlink:href="#SimSun-46"/>
       <use x="100" xlink:href="#SimSun-48"/>
      </g>
     </g>
    </g>
    <g id="ytick_4">
     <g id="line2d_19">
      <path clip-path="url(#p6da80e3a1f)" d="M 90 148.86 
L 648 148.86 
" style="fill:none;stroke:#b0b0b0;stroke-linecap:square;stroke-width:0.8;"/>
     </g>
     <g id="line2d_20">
      <g>
       <use style="stroke:#000000;stroke-width:0.8;" x="90" xlink:href="#mc6a6b942e6" y="148.86"/>
      </g>
     </g>
     <g id="text_11">
      <!-- 0.5 -->
      <g transform="translate(68 152.434219)scale(0.1 -0.1)">
       <use xlink:href="#SimSun-48"/>
       <use x="50" xlink:href="#SimSun-46"/>
       <use x="100" xlink:href="#SimSun-53"/>
      </g>
     </g>
    </g>
    <g id="ytick_5">
     <g id="line2d_21">
      <path clip-path="url(#p6da80e3a1f)" d="M 90 79.56 
L 648 79.56 
" style="fill:none;stroke:#b0b0b0;stroke-linecap:square;stroke-width:0.8;"/>
     </g>
     <g id="line2d_22">
      <g>
       <use style="stroke:#000000;stroke-width:0.8;" x="90" xlink:href="#mc6a6b942e6" y="79.56"/>
      </g>
     </g>
     <g id="text_12">
      <!-- 1.0 -->
      <g transform="translate(68 83.134219)scale(0.1 -0.1)">
       <use xlink:href="#SimSun-49"/>
       <use x="50" xlink:href="#SimSun-46"/>
       <use x="100" xlink:href="#SimSun-48"/>
      </g>
     </g>
    </g>
    <g id="text_13">
     <!-- Y值 -->
     <defs>
      <path d="M 37.109375 61.328125 
Q 37.5 63.671875 36.515625 64.84375 
Q 35.546875 66.015625 32.8125 66.015625 
L 32.03125 66.015625 
L 32.03125 68.359375 
L 47.265625 68.359375 
L 47.265625 66.015625 
L 46.09375 66.015625 
Q 44.140625 66.015625 42.578125 64.640625 
Q 41.015625 63.28125 39.84375 60.546875 
L 27.734375 29.6875 
L 27.734375 7.03125 
Q 27.734375 5.46875 28.703125 4.6875 
Q 29.6875 3.90625 31.25 3.90625 
L 34.765625 3.90625 
L 34.765625 1.5625 
L 14.453125 1.5625 
L 14.453125 3.90625 
L 17.96875 3.90625 
Q 19.921875 3.90625 20.703125 4.6875 
Q 21.484375 5.46875 21.484375 7.03125 
L 21.484375 27.34375 
L 8.203125 61.71875 
Q 7.421875 63.671875 6.25 64.84375 
Q 5.078125 66.015625 3.125 66.015625 
L 2.34375 66.015625 
L 2.34375 68.359375 
L 19.53125 68.359375 
L 19.53125 66.015625 
L 17.1875 66.015625 
Q 14.84375 66.015625 14.453125 64.84375 
Q 14.0625 63.671875 14.84375 61.328125 
L 25.390625 32.421875 
L 26.171875 32.421875 
z
" id="SimSun-89"/>
     </defs>
     <g transform="translate(57.710938 225.66)rotate(-90)scale(0.1 -0.1)">
      <use xlink:href="#SimSun-89"/>
      <use x="50" xlink:href="#SimSun-20540"/>
     </g>
    </g>
   </g>
   <g id="line2d_23">
    <path clip-path="url(#p6da80e3a1f)" d="M 115.363636 218.16 
L 120.487603 204.183795 
L 125.61157 190.350068 
L 130.735537 176.799847 
L 135.859504 163.671266 
L 140.983471 151.098163 
L 146.107438 139.208713 
L 151.231405 128.124121 
L 156.355372 117.957389 
L 161.479339 108.812159 
L 166.603306 100.781661 
L 171.727273 93.947761 
L 176.85124 88.380126 
L 181.975207 84.135515 
L 187.099174 81.2572 
L 192.22314 79.774521 
L 197.347107 79.702596 
L 202.471074 81.042156 
L 207.595041 83.779545 
L 212.719008 87.886859 
L 217.842975 93.322225 
L 222.966942 100.030233 
L 228.090909 107.9425 
L 233.214876 116.978365 
L 238.338843 127.045712 
L 243.46281 138.041912 
L 248.586777 149.854865 
L 253.710744 162.364146 
L 258.834711 175.44223 
L 263.958678 188.955795 
L 269.082645 202.767079 
L 274.206612 216.735283 
L 279.330579 230.718012 
L 284.454545 244.57272 
L 289.578512 258.158166 
L 294.702479 271.335857 
L 299.826446 283.971453 
L 304.950413 295.936144 
L 310.07438 307.107955 
L 315.198347 317.372998 
L 320.322314 326.626628 
L 325.446281 334.774509 
L 330.570248 341.733578 
L 335.694215 347.432893 
L 340.818182 351.814352 
L 345.942149 354.83329 
L 351.066116 356.45893 
L 356.190083 356.6747 
L 361.31405 355.478399 
L 366.438017 352.882225 
L 371.561983 348.912642 
L 376.68595 343.610119 
L 381.809917 337.028711 
L 386.933884 329.235512 
L 392.057851 320.309968 
L 397.181818 310.34307 
L 402.305785 299.436423 
L 407.429752 287.701215 
L 412.553719 275.257078 
L 417.677686 262.230872 
L 422.801653 248.755392 
L 427.92562 234.968011 
L 433.049587 221.009283 
L 438.173554 207.021508 
L 443.297521 193.147283 
L 448.421488 179.528047 
L 453.545455 166.302639 
L 458.669421 153.605885 
L 463.793388 141.567219 
L 468.917355 130.309367 
L 474.041322 119.947098 
L 479.165289 110.586047 
L 484.289256 102.321644 
L 489.413223 95.238141 
L 494.53719 89.407748 
L 499.661157 84.889903 
L 504.785124 81.730662 
L 509.909091 79.962232 
L 515.033058 79.602642 
L 520.157025 80.655556 
L 525.280992 83.11024 
L 530.404959 86.941672 
L 535.528926 92.110792 
L 540.652893 98.564904 
L 545.77686 106.238213 
L 550.900826 115.052493 
L 556.024793 124.917889 
L 561.14876 135.73383 
L 566.272727 147.390053 
L 571.396694 159.767731 
L 576.520661 172.740682 
L 581.644628 186.176654 
L 586.768595 199.938675 
L 591.892562 213.886452 
L 597.016529 227.877795 
L 602.140496 241.770071 
L 607.264463 255.421657 
L 612.38843 268.693384 
L 617.512397 281.449956 
L 622.636364 293.561326 
" style="fill:none;stroke:#ff0000;stroke-linecap:square;stroke-width:2;"/>
   </g>
   <g id="line2d_24">
    <path clip-path="url(#p6da80e3a1f)" d="M 115.363636 79.56 
L 120.487603 80.26647 
L 125.61157 82.378677 
L 130.735537 85.875089 
L 135.859504 90.720062 
L 140.983471 96.864205 
L 146.107438 104.244881 
L 151.231405 112.786851 
L 156.355372 122.403033 
L 161.479339 132.995397 
L 166.603306 144.45596 
L 171.727273 156.667889 
L 176.85124 169.506692 
L 181.975207 182.841484 
L 187.099174 196.536327 
L 192.22314 210.451609 
L 197.347107 224.445473 
L 202.471074 238.37526 
L 207.595041 252.098966 
L 212.719008 265.476686 
L 217.842975 278.372042 
L 222.966942 290.653574 
L 228.090909 302.19608 
L 233.214876 312.881891 
L 238.338843 322.602072 
L 243.46281 331.257533 
L 248.586777 338.760035 
L 253.710744 345.033097 
L 258.834711 350.012767 
L 263.958678 353.648282 
L 269.082645 355.902579 
L 274.206612 356.752677 
L 279.330579 356.189911 
L 284.454545 354.220017 
L 289.578512 350.863077 
L 294.702479 346.153313 
L 299.826446 340.138738 
L 304.950413 332.880667 
L 310.07438 324.453091 
L 315.198347 314.941925 
L 320.322314 304.444127 
L 325.446281 293.066718 
L 330.570248 280.925682 
L 335.694215 268.144789 
L 340.818182 254.854333 
L 345.942149 241.189802 
L 351.066116 227.290496 
L 356.190083 213.29811 
L 361.31405 199.355289 
L 366.438017 185.604169 
L 371.561983 172.184936 
L 376.68595 159.23439 
L 381.809917 146.884552 
L 386.933884 135.261323 
L 392.057851 124.483194 
L 397.181818 114.660041 
L 402.305785 105.892004 
L 407.429752 98.268468 
L 412.553719 91.867151 
L 417.677686 86.75331 
L 422.801653 82.979077 
L 427.92562 80.582928 
L 433.049587 79.58929 
L 438.173554 80.008294 
L 443.297521 81.835666 
L 448.421488 85.052779 
L 453.545455 89.626836 
L 458.669421 95.511208 
L 463.793388 102.645906 
L 468.917355 110.958198 
L 474.041322 120.363344 
L 479.165289 130.765466 
L 484.289256 142.058519 
L 489.413223 154.127379 
L 494.53719 166.849012 
L 499.661157 180.093727 
L 504.785124 193.726504 
L 509.909091 207.608365 
L 515.033058 221.597793 
L 520.157025 235.552175 
L 525.280992 249.329255 
L 530.404959 262.788584 
L 535.528926 275.792953 
L 540.652893 288.20979 
L 545.77686 299.912514 
L 550.900826 310.781822 
L 556.024793 320.70691 
L 561.14876 329.586597 
L 566.272727 337.33036 
L 571.396694 343.859256 
L 576.520661 349.106728 
L 581.644628 353.019281 
L 586.768595 355.557028 
L 591.892562 356.6941 
L 597.016529 356.418904 
L 602.140496 354.734246 
L 607.264463 351.657299 
L 612.38843 347.219432 
L 617.512397 341.465886 
L 622.636364 334.455314 
" style="fill:none;stroke:#0000ff;stroke-dasharray:5.55,2.4;stroke-dashoffset:0;stroke-width:1.5;"/>
   </g>
   <g id="patch_3">
    <path d="M 90 384.48 
L 90 51.84 
" style="fill:none;stroke:#000000;stroke-linecap:square;stroke-linejoin:miter;stroke-width:0.8;"/>
   </g>
   <g id="patch_4">
    <path d="M 648 384.48 
L 648 51.84 
" style="fill:none;stroke:#000000;stroke-linecap:square;stroke-linejoin:miter;stroke-width:0.8;"/>
   </g>
   <g id="patch_5">
    <path d="M 90 384.48 
L 648 384.48 
" style="fill:none;stroke:#000000;stroke-linecap:square;stroke-linejoin:miter;stroke-width:0.8;"/>
   </g>
   <g id="patch_6">
    <path d="M 90 51.84 
L 648 51.84 
" style="fill:none;stroke:#000000;stroke-linecap:square;stroke-linejoin:miter;stroke-width:0.8;"/>
   </g>
   <g id="text_14">
    <!-- 三角函数图像 -->
    <defs>
     <path d="M 11.328125 66.796875 
L 14.453125 63.671875 
Q 17.96875 64.84375 22.265625 64.84375 
L 89.84375 64.84375 
L 82.03125 72.65625 
L 75.78125 66.796875 
z
M 17.1875 35.546875 
L 20.3125 32.421875 
Q 23.828125 33.59375 28.125 33.59375 
L 82.03125 33.59375 
L 73.828125 41.796875 
L 67.96875 35.546875 
z
M 3.515625 2.34375 
L 6.640625 -0.78125 
Q 10.15625 0.390625 14.453125 0.390625 
L 95.703125 0.390625 
L 87.109375 8.59375 
L 80.859375 2.34375 
z
" id="SimSun-19977"/>
     <path d="M 36.328125 67.578125 
L 60.546875 67.578125 
L 52.734375 53.90625 
L 30.078125 53.90625 
L 28.125 56.25 
Q 32.421875 61.71875 36.328125 67.578125 
z
M 30.078125 51.953125 
L 50.390625 51.953125 
L 50.390625 38.28125 
L 30.078125 38.28125 
z
M 55.46875 51.953125 
L 78.515625 51.953125 
L 78.515625 38.28125 
L 55.46875 38.28125 
z
M 30.078125 36.328125 
L 50.390625 36.328125 
L 50.390625 22.65625 
L 29.6875 22.65625 
Q 30.078125 28.515625 30.078125 36.328125 
z
M 55.46875 36.328125 
L 78.515625 36.328125 
L 78.515625 22.65625 
L 55.46875 22.65625 
z
M 63.28125 0 
L 63.28125 -1.953125 
Q 75.78125 -5.859375 75.390625 -9.765625 
Q 83.59375 -7.421875 83.59375 -1.953125 
L 83.59375 50 
L 87.5 52.734375 
L 80.46875 58.59375 
L 76.5625 53.90625 
L 55.078125 53.90625 
Q 64.0625 63.671875 66.40625 65.234375 
Q 68.75 66.796875 71.484375 66.796875 
L 64.0625 74.21875 
L 60.15625 69.53125 
L 37.5 69.53125 
Q 39.0625 71.875 40.421875 73.828125 
Q 41.796875 75.78125 44.53125 76.171875 
L 35.9375 81.640625 
Q 33.984375 73.4375 25.78125 61.328125 
Q 17.578125 49.21875 7.421875 41.796875 
L 8.59375 40.625 
Q 18.359375 46.09375 25 52.734375 
Q 25.390625 23.4375 23.4375 15.421875 
Q 21.484375 7.421875 17.1875 1.5625 
Q 12.890625 -4.296875 5.46875 -9.375 
L 6.640625 -10.546875 
Q 16.015625 -5.46875 22.453125 2.140625 
Q 28.90625 9.765625 29.6875 20.703125 
L 50.390625 20.703125 
Q 50.390625 -3.125 50 -8.59375 
L 55.859375 -5.078125 
Q 55.46875 -1.171875 55.46875 20.703125 
L 78.515625 20.703125 
L 78.515625 2.34375 
Q 78.515625 -2.34375 75.390625 -1.953125 
Q 72.265625 -1.5625 63.28125 0 
z
" id="SimSun-35282"/>
     <path d="M 47.65625 35.15625 
Q 40.625 30.46875 32.609375 26.5625 
Q 24.609375 22.65625 19.921875 21.484375 
L 25.390625 15.625 
Q 28.90625 19.921875 47.65625 32.421875 
L 47.65625 12.890625 
Q 47.65625 10.9375 45.703125 10.546875 
Q 43.75 10.15625 34.375 11.328125 
L 34.375 9.765625 
Q 42.578125 7.421875 44.921875 1.953125 
Q 48.828125 3.515625 50.78125 5.46875 
Q 52.734375 7.421875 52.734375 12.109375 
L 52.734375 33.203125 
Q 63.671875 24.609375 68.15625 17.578125 
Q 72.65625 10.546875 74.40625 14.25 
Q 76.171875 17.96875 73.828125 21.875 
Q 71.484375 25.78125 53.125 35.15625 
Q 56.640625 37.5 72.265625 48.4375 
L 76.171875 48.828125 
L 69.921875 55.859375 
Q 66.40625 50 52.734375 37.109375 
L 52.734375 51.5625 
L 55.46875 53.515625 
L 53.125 55.078125 
Q 66.015625 62.5 71.09375 64.84375 
Q 76.171875 67.1875 80.46875 67.96875 
L 74.609375 75.78125 
L 69.53125 71.875 
L 12.890625 71.875 
L 16.015625 68.75 
Q 19.53125 69.921875 23.828125 69.921875 
L 69.53125 69.921875 
L 51.171875 56.25 
L 47.265625 58.984375 
Q 47.65625 53.515625 47.65625 46.484375 
z
M 26.5625 53.90625 
Q 33.59375 44.53125 34.765625 39.84375 
Q 35.9375 35.15625 38.859375 38.859375 
Q 41.796875 42.578125 39.25 46.09375 
Q 36.71875 49.609375 27.734375 55.078125 
z
M 80.46875 -0.390625 
L 19.140625 -0.390625 
L 19.140625 46.09375 
L 22.65625 48.828125 
L 13.28125 53.125 
Q 13.671875 43.359375 13.671875 36.71875 
L 13.671875 1.5625 
L 10.546875 -1.171875 
L 15.625 -6.25 
L 19.53125 -2.34375 
L 80.46875 -2.34375 
L 80.46875 -9.765625 
L 86.328125 -6.640625 
Q 85.9375 1.171875 85.9375 7.8125 
L 85.9375 44.140625 
L 89.453125 47.265625 
L 80.078125 51.5625 
Q 80.46875 42.1875 80.46875 33.59375 
z
" id="SimSun-20989"/>
     <path d="M 29.296875 23.828125 
L 42.578125 23.828125 
Q 39.453125 16.40625 35.546875 10.9375 
Q 28.515625 12.5 22.65625 13.671875 
Q 26.171875 18.75 29.296875 23.828125 
z
M 12.890625 76.5625 
L 12.109375 75.390625 
Q 16.40625 69.140625 17.96875 63.46875 
Q 19.53125 57.8125 21.875 61.71875 
Q 24.21875 65.625 22.265625 68.75 
Q 20.3125 71.875 12.890625 76.5625 
z
M 46.875 77.734375 
Q 45.703125 73.828125 38.28125 60.15625 
L 39.453125 59.765625 
Q 44.921875 66.015625 47.453125 69.140625 
Q 50 72.265625 53.515625 73.046875 
z
M 29.296875 81.640625 
Q 29.6875 71.09375 29.6875 57.03125 
L 6.640625 57.03125 
L 9.765625 53.90625 
Q 13.28125 55.078125 17.578125 55.078125 
L 26.5625 55.078125 
Q 19.140625 42.96875 4.6875 32.8125 
L 5.46875 31.640625 
Q 19.140625 38.671875 29.6875 50.390625 
L 29.6875 34.375 
L 28.90625 34.765625 
Q 27.734375 31.25 24.609375 25.78125 
L 5.859375 25.78125 
L 8.984375 22.65625 
L 12.5 23.828125 
L 23.828125 23.828125 
Q 18.359375 14.453125 16.015625 12.109375 
Q 25 10.9375 32.8125 8.203125 
Q 21.09375 -1.953125 4.6875 -6.640625 
L 5.078125 -8.203125 
Q 24.21875 -4.6875 37.5 6.25 
Q 43.359375 3.90625 46.671875 0.578125 
Q 50 -2.734375 50.578125 0.78125 
Q 51.171875 4.296875 49.015625 6.046875 
Q 46.875 7.8125 40.625 9.765625 
Q 44.140625 14.453125 48.046875 23.046875 
L 51.5625 25.390625 
L 45.703125 29.6875 
L 42.96875 25.78125 
L 30.46875 25.78125 
Q 33.203125 30.46875 35.9375 32.03125 
L 30.078125 33.984375 
L 34.765625 37.109375 
L 34.765625 49.21875 
Q 40.625 45.3125 43.359375 41.015625 
Q 46.09375 36.71875 47.453125 40.421875 
Q 48.828125 44.140625 46.28125 46.484375 
Q 43.75 48.828125 34.765625 51.171875 
L 34.765625 55.078125 
L 55.46875 55.078125 
L 49.21875 61.328125 
L 45.3125 57.03125 
L 34.765625 57.03125 
L 34.765625 75.390625 
L 37.5 77.734375 
z
M 61.328125 55.078125 
L 78.90625 55.078125 
Q 77.34375 29.6875 70.703125 16.796875 
Q 63.28125 32.03125 61.328125 55.078125 
z
M 63.671875 81.640625 
Q 57.03125 49.609375 47.265625 33.984375 
L 48.4375 33.203125 
Q 55.46875 42.1875 59.765625 52.34375 
Q 60.15625 30.46875 67.96875 12.5 
Q 57.8125 -1.5625 38.671875 -8.984375 
L 39.0625 -10.15625 
Q 59.765625 -4.296875 70.703125 8.59375 
Q 77.734375 -0.78125 88.28125 -7.421875 
Q 88.671875 -3.515625 95.3125 -3.125 
L 95.3125 -1.953125 
Q 83.984375 0.390625 73.828125 12.5 
Q 82.421875 25.78125 83.984375 55.078125 
L 95.703125 55.078125 
L 89.0625 62.5 
L 83.984375 57.03125 
L 61.71875 57.03125 
Q 65.625 66.796875 67.578125 70.890625 
Q 69.53125 75 72.65625 76.953125 
z
" id="SimSun-25968"/>
     <path d="M 87.109375 73.046875 
L 89.453125 75.390625 
L 83.984375 80.078125 
L 80.859375 76.5625 
L 19.53125 76.5625 
L 13.28125 80.078125 
Q 13.671875 71.875 13.671875 65.234375 
L 13.671875 6.25 
Q 13.671875 -1.953125 13.28125 -9.765625 
L 19.140625 -7.421875 
L 19.140625 -0.78125 
L 81.640625 -0.78125 
L 81.640625 -8.984375 
L 87.5 -5.859375 
Q 87.109375 0.390625 87.109375 8.203125 
z
M 19.140625 74.609375 
L 38.671875 74.609375 
Q 38.28125 70.3125 33.984375 61.125 
Q 29.6875 51.953125 23.4375 43.359375 
L 24.609375 42.578125 
Q 32.03125 50 37.890625 59.765625 
Q 40.625 51.953125 46.09375 43.75 
Q 36.328125 34.375 19.140625 26.171875 
z
M 19.140625 1.171875 
L 19.140625 24.609375 
Q 35.546875 30.078125 48.828125 40.625 
Q 58.984375 30.46875 73.046875 26.5625 
Q 73.828125 30.078125 80.078125 31.640625 
L 80.078125 33.203125 
Q 61.71875 33.984375 51.953125 43.75 
Q 58.59375 50.78125 62.296875 55.265625 
Q 66.015625 59.765625 70.3125 60.9375 
L 63.671875 67.96875 
L 60.15625 64.0625 
L 40.625 64.0625 
Q 41.796875 66.40625 43.546875 68.359375 
Q 45.3125 70.3125 46.875 70.703125 
L 39.453125 74.609375 
L 81.640625 74.609375 
L 81.640625 1.171875 
z
M 39.453125 62.109375 
L 60.15625 62.109375 
Q 54.6875 52.734375 48.828125 46.875 
Q 44.140625 51.5625 39.453125 62.109375 
z
M 42.1875 32.03125 
L 41.796875 30.46875 
Q 51.5625 24.609375 54.875 20.890625 
Q 58.203125 17.1875 58.984375 21.671875 
Q 59.765625 26.171875 55.859375 28.125 
Q 51.953125 30.078125 42.1875 32.03125 
z
M 33.984375 17.578125 
L 33.984375 16.015625 
Q 52.734375 10.546875 58 5.859375 
Q 63.28125 1.171875 63.671875 6.046875 
Q 64.0625 10.9375 58 13.46875 
Q 51.953125 16.015625 33.984375 17.578125 
z
" id="SimSun-22270"/>
     <path d="M 24.21875 51.5625 
L 26.5625 53.90625 
L 22.65625 56.640625 
Q 24.21875 60.546875 27.734375 67.578125 
Q 31.25 74.609375 34.765625 77.734375 
L 26.5625 81.25 
Q 24.609375 73.046875 18.75 59.171875 
Q 12.890625 45.3125 3.90625 32.421875 
L 4.6875 31.25 
Q 12.5 39.84375 19.140625 49.609375 
L 19.140625 3.515625 
Q 19.140625 -2.34375 18.75 -11.328125 
L 24.21875 -8.203125 
z
M 44.53125 58.984375 
L 60.15625 58.984375 
Q 58.984375 51.953125 56.640625 46.875 
L 44.53125 46.875 
z
M 65.625 58.984375 
L 81.25 58.984375 
L 81.25 46.875 
L 61.71875 46.875 
Q 64.0625 51.5625 65.625 58.984375 
z
M 51.5625 70.703125 
L 68.75 70.703125 
L 62.890625 60.9375 
L 41.796875 60.9375 
Q 48.046875 67.1875 51.5625 70.703125 
z
M 62.109375 23.046875 
Q 57.8125 17.578125 48.046875 10.546875 
Q 38.28125 3.515625 28.125 -1.953125 
L 28.515625 -3.515625 
Q 39.84375 1.171875 48.828125 6.828125 
Q 57.8125 12.5 63.671875 17.96875 
Q 64.84375 6.640625 63.28125 2.140625 
Q 61.71875 -2.34375 58.984375 -2.34375 
Q 56.25 -2.34375 46.484375 -1.171875 
L 46.484375 -2.734375 
Q 51.5625 -4.6875 53.3125 -6.046875 
Q 55.078125 -7.421875 55.859375 -10.15625 
Q 62.5 -7.8125 65.421875 -4.6875 
Q 68.359375 -1.5625 69.140625 6.25 
Q 69.921875 14.0625 66.40625 24.21875 
Q 69.140625 26.171875 71.09375 27.34375 
Q 73.4375 17.1875 77.734375 10.546875 
Q 82.03125 3.90625 87.5 -0.78125 
Q 89.453125 2.34375 95.3125 3.515625 
L 95.3125 4.6875 
Q 85.15625 6.640625 79.484375 15.03125 
Q 73.828125 23.4375 73.046875 28.125 
Q 76.5625 29.6875 79.6875 31.046875 
Q 82.8125 32.421875 87.109375 33.203125 
L 82.03125 39.453125 
Q 77.734375 33.984375 65.234375 26.171875 
Q 60.9375 32.421875 55.078125 37.5 
Q 58.203125 40.625 60.9375 44.921875 
L 81.25 44.921875 
L 81.25 41.015625 
L 86.71875 42.96875 
Q 86.328125 49.21875 86.328125 57.421875 
L 89.0625 59.765625 
L 83.59375 64.453125 
L 80.46875 60.9375 
L 65.234375 60.9375 
Q 67.578125 64.453125 70.890625 66.984375 
Q 74.21875 69.53125 78.90625 70.3125 
L 72.265625 76.5625 
L 68.359375 72.65625 
L 53.125 72.65625 
Q 56.640625 76.171875 60.15625 77.734375 
L 52.734375 82.03125 
Q 50 76.171875 43.546875 67.96875 
Q 37.109375 59.765625 30.078125 53.90625 
L 30.859375 52.734375 
Q 35.9375 55.859375 39.453125 58.59375 
L 39.453125 46.875 
Q 39.453125 42.96875 39.0625 38.671875 
L 44.53125 40.625 
L 44.53125 44.921875 
L 55.46875 44.921875 
Q 50.78125 37.5 42.765625 32.21875 
Q 34.765625 26.953125 28.125 24.21875 
L 28.515625 22.65625 
Q 33.984375 24.21875 41.40625 28.125 
Q 48.828125 32.03125 53.90625 36.328125 
Q 55.46875 34.375 56.640625 32.421875 
Q 53.515625 27.734375 45.703125 21.671875 
Q 37.890625 15.625 28.90625 11.328125 
L 29.296875 9.765625 
Q 37.890625 12.890625 46.671875 18.546875 
Q 55.46875 24.21875 59.375 28.90625 
Q 61.71875 25.390625 62.109375 23.046875 
z
" id="SimSun-20687"/>
    </defs>
    <g transform="translate(333 45.84)scale(0.12 -0.12)">
     <use xlink:href="#SimSun-19977"/>
     <use x="100" xlink:href="#SimSun-35282"/>
     <use x="200" xlink:href="#SimSun-20989"/>
     <use x="300" xlink:href="#SimSun-25968"/>
     <use x="400" xlink:href="#SimSun-22270"/>
     <use x="500" xlink:href="#SimSun-20687"/>
    </g>
   </g>
   <g id="legend_1">
    <g id="patch_7">
     <path d="M 573.2 89.34 
L 641 89.34 
Q 643 89.34 643 87.34 
L 643 58.84 
Q 643 56.84 641 56.84 
L 573.2 56.84 
Q 571.2 56.84 571.2 58.84 
L 571.2 87.34 
Q 571.2 89.34 573.2 89.34 
z
" style="fill:#ffffff;opacity:0.8;stroke:#cccccc;stroke-linejoin:miter;"/>
    </g>
    <g id="line2d_25">
     <path d="M 575.2 64.94 
L 595.2 64.94 
" style="fill:none;stroke:#ff0000;stroke-linecap:square;stroke-width:2;"/>
    </g>
    <g id="line2d_26"/>
    <g id="text_15">
     <!-- $sin(x)$ -->
     <defs>
      <path d="M 50 53.078125 
L 48.296875 44.578125 
Q 44.734375 46.53125 40.765625 47.5 
Q 36.8125 48.484375 32.625 48.484375 
Q 25.53125 48.484375 21.453125 46.0625 
Q 17.390625 43.65625 17.390625 39.5 
Q 17.390625 34.671875 26.859375 32.078125 
Q 27.59375 31.890625 27.9375 31.78125 
L 30.8125 30.90625 
Q 39.796875 28.421875 42.796875 25.6875 
Q 45.796875 22.953125 45.796875 18.21875 
Q 45.796875 9.515625 38.890625 4.046875 
Q 31.984375 -1.421875 20.796875 -1.421875 
Q 16.453125 -1.421875 11.671875 -0.578125 
Q 6.890625 0.25 1.125 2 
L 2.875 11.28125 
Q 7.8125 8.734375 12.59375 7.421875 
Q 17.390625 6.109375 21.78125 6.109375 
Q 28.375 6.109375 32.5 8.9375 
Q 36.625 11.765625 36.625 16.109375 
Q 36.625 20.796875 25.78125 23.6875 
L 24.859375 23.921875 
L 21.78125 24.703125 
Q 14.9375 26.515625 11.765625 29.46875 
Q 8.59375 32.421875 8.59375 37.015625 
Q 8.59375 45.75 15.15625 50.875 
Q 21.734375 56 33.015625 56 
Q 37.453125 56 41.671875 55.265625 
Q 45.90625 54.546875 50 53.078125 
z
" id="DejaVuSans-Oblique-115"/>
      <path d="M 18.3125 75.984375 
L 27.296875 75.984375 
L 25.09375 64.59375 
L 16.109375 64.59375 
z
M 14.203125 54.6875 
L 23.1875 54.6875 
L 12.5 0 
L 3.515625 0 
z
" id="DejaVuSans-Oblique-105"/>
      <path d="M 55.71875 33.015625 
L 49.3125 0 
L 40.28125 0 
L 46.6875 32.671875 
Q 47.125 34.96875 47.359375 36.71875 
Q 47.609375 38.484375 47.609375 39.5 
Q 47.609375 43.609375 45.015625 45.890625 
Q 42.4375 48.1875 37.796875 48.1875 
Q 30.5625 48.1875 25.34375 43.375 
Q 20.125 38.578125 18.5 30.328125 
L 12.5 0 
L 3.515625 0 
L 14.109375 54.6875 
L 23.09375 54.6875 
L 21.296875 46.09375 
Q 25.046875 50.828125 30.3125 53.40625 
Q 35.59375 56 41.40625 56 
Q 48.640625 56 52.609375 52.09375 
Q 56.59375 48.1875 56.59375 41.109375 
Q 56.59375 39.359375 56.375 37.359375 
Q 56.15625 35.359375 55.71875 33.015625 
z
" id="DejaVuSans-Oblique-110"/>
      <path d="M 31 75.875 
Q 24.46875 64.65625 21.28125 53.65625 
Q 18.109375 42.671875 18.109375 31.390625 
Q 18.109375 20.125 21.3125 9.0625 
Q 24.515625 -2 31 -13.1875 
L 23.1875 -13.1875 
Q 15.875 -1.703125 12.234375 9.375 
Q 8.59375 20.453125 8.59375 31.390625 
Q 8.59375 42.28125 12.203125 53.3125 
Q 15.828125 64.359375 23.1875 75.875 
z
" id="DejaVuSans-40"/>
      <path d="M 60.015625 54.6875 
L 34.90625 27.875 
L 50.296875 0 
L 39.984375 0 
L 28.421875 21.6875 
L 8.296875 0 
L -2.59375 0 
L 24.3125 28.8125 
L 10.015625 54.6875 
L 20.3125 54.6875 
L 30.8125 34.90625 
L 49.125 54.6875 
z
" id="DejaVuSans-Oblique-120"/>
      <path d="M 8.015625 75.875 
L 15.828125 75.875 
Q 23.140625 64.359375 26.78125 53.3125 
Q 30.421875 42.28125 30.421875 31.390625 
Q 30.421875 20.453125 26.78125 9.375 
Q 23.140625 -1.703125 15.828125 -13.1875 
L 8.015625 -13.1875 
Q 14.5 -2 17.703125 9.0625 
Q 20.90625 20.125 20.90625 31.390625 
Q 20.90625 42.671875 17.703125 53.65625 
Q 14.5 64.65625 8.015625 75.875 
z
" id="DejaVuSans-41"/>
     </defs>
     <g transform="translate(603.2 68.44)scale(0.1 -0.1)">
      <use transform="translate(0 0.015625)" xlink:href="#DejaVuSans-Oblique-115"/>
      <use transform="translate(52.099609 0.015625)" xlink:href="#DejaVuSans-Oblique-105"/>
      <use transform="translate(79.882812 0.015625)" xlink:href="#DejaVuSans-Oblique-110"/>
      <use transform="translate(143.261719 0.015625)" xlink:href="#DejaVuSans-40"/>
      <use transform="translate(182.275391 0.015625)" xlink:href="#DejaVuSans-Oblique-120"/>
      <use transform="translate(241.455078 0.015625)" xlink:href="#DejaVuSans-41"/>
     </g>
    </g>
    <g id="line2d_27">
     <path d="M 575.2 80.44 
L 595.2 80.44 
" style="fill:none;stroke:#0000ff;stroke-dasharray:5.55,2.4;stroke-dashoffset:0;stroke-width:1.5;"/>
    </g>
    <g id="line2d_28"/>
    <g id="text_16">
     <!-- $cos(x^2)$ -->
     <defs>
      <path d="M 53.609375 52.59375 
L 51.8125 43.703125 
Q 48.578125 46.046875 44.9375 47.21875 
Q 41.3125 48.390625 37.40625 48.390625 
Q 33.109375 48.390625 29.21875 46.875 
Q 25.34375 45.359375 22.703125 42.578125 
Q 18.5 38.328125 16.203125 32.609375 
Q 13.921875 26.90625 13.921875 20.796875 
Q 13.921875 13.421875 17.609375 9.8125 
Q 21.296875 6.203125 28.8125 6.203125 
Q 32.515625 6.203125 36.6875 7.328125 
Q 40.875 8.453125 45.40625 10.6875 
L 43.703125 1.8125 
Q 39.796875 0.203125 35.671875 -0.609375 
Q 31.546875 -1.421875 27.203125 -1.421875 
Q 16.3125 -1.421875 10.453125 4.015625 
Q 4.59375 9.46875 4.59375 19.578125 
Q 4.59375 28.078125 7.640625 35.234375 
Q 10.6875 42.390625 16.703125 48.09375 
Q 20.796875 52 26.3125 54 
Q 31.84375 56 38.375 56 
Q 42.1875 56 45.9375 55.140625 
Q 49.703125 54.296875 53.609375 52.59375 
z
" id="DejaVuSans-Oblique-99"/>
      <path d="M 25.390625 -1.421875 
Q 15.765625 -1.421875 10.171875 4.515625 
Q 4.59375 10.453125 4.59375 20.703125 
Q 4.59375 26.65625 6.515625 32.828125 
Q 8.453125 39.015625 11.53125 43.21875 
Q 16.359375 49.75 22.3125 52.875 
Q 28.265625 56 35.796875 56 
Q 45.125 56 50.859375 50.1875 
Q 56.59375 44.390625 56.59375 35.015625 
Q 56.59375 28.515625 54.6875 22.0625 
Q 52.78125 15.625 49.703125 11.375 
Q 44.921875 4.828125 38.96875 1.703125 
Q 33.015625 -1.421875 25.390625 -1.421875 
z
M 13.921875 21 
Q 13.921875 13.578125 17.015625 9.890625 
Q 20.125 6.203125 26.421875 6.203125 
Q 35.453125 6.203125 41.375 14.078125 
Q 47.3125 21.96875 47.3125 34.078125 
Q 47.3125 41.15625 44.140625 44.765625 
Q 40.96875 48.390625 34.8125 48.390625 
Q 29.734375 48.390625 25.78125 46.015625 
Q 21.828125 43.65625 18.703125 38.8125 
Q 16.40625 35.203125 15.15625 30.5625 
Q 13.921875 25.921875 13.921875 21 
z
" id="DejaVuSans-Oblique-111"/>
      <path d="M 19.1875 8.296875 
L 53.609375 8.296875 
L 53.609375 0 
L 7.328125 0 
L 7.328125 8.296875 
Q 12.9375 14.109375 22.625 23.890625 
Q 32.328125 33.6875 34.8125 36.53125 
Q 39.546875 41.84375 41.421875 45.53125 
Q 43.3125 49.21875 43.3125 52.78125 
Q 43.3125 58.59375 39.234375 62.25 
Q 35.15625 65.921875 28.609375 65.921875 
Q 23.96875 65.921875 18.8125 64.3125 
Q 13.671875 62.703125 7.8125 59.421875 
L 7.8125 69.390625 
Q 13.765625 71.78125 18.9375 73 
Q 24.125 74.21875 28.421875 74.21875 
Q 39.75 74.21875 46.484375 68.546875 
Q 53.21875 62.890625 53.21875 53.421875 
Q 53.21875 48.921875 51.53125 44.890625 
Q 49.859375 40.875 45.40625 35.40625 
Q 44.1875 33.984375 37.640625 27.21875 
Q 31.109375 20.453125 19.1875 8.296875 
z
" id="DejaVuSans-50"/>
     </defs>
     <g transform="translate(603.2 83.94)scale(0.1 -0.1)">
      <use transform="translate(0 0.765625)" xlink:href="#DejaVuSans-Oblique-99"/>
      <use transform="translate(54.980469 0.765625)" xlink:href="#DejaVuSans-Oblique-111"/>
      <use transform="translate(116.162109 0.765625)" xlink:href="#DejaVuSans-Oblique-115"/>
      <use transform="translate(168.261719 0.765625)" xlink:href="#DejaVuSans-40"/>
      <use transform="translate(207.275391 0.765625)" xlink:href="#DejaVuSans-Oblique-120"/>
      <use transform="translate(270.921224 39.046875)scale(0.7)" xlink:href="#DejaVuSans-50"/>
      <use transform="translate(318.191732 0.765625)" xlink:href="#DejaVuSans-41"/>
     </g>
    </g>
   </g>
  </g>
 </g>
 <defs>
  <clipPath id="p6da80e3a1f">
   <rect height="332.64" width="558" x="90" y="51.84"/>
  </clipPath>
 </defs>
</svg>
